<svg aria-hidden="true" style="position: absolute; width: 0; height: 0; overflow: hidden;" version="1.1" xmlns="http://www.w3.org/2000/svg" xmlns:xlink="http://www.w3.org/1999/xlink">
<defs>
<symbol id="icon-arrow-left" viewBox="0 0 24 32">
<title>arrow-left</title>
<path  d="M21.487 5.221l-11.542 11.54 11.542 11.539-3.513 3.514-15.053-15.053 15.053-15.053z"></path>
</symbol>
<symbol id="icon-arrow-right" viewBox="0 0 24 32">
<title>arrow-right</title>
<path d="M2.921 28.3l11.542-11.539-11.542-11.54 3.513-3.513 15.053 15.053-15.053 15.053z"></path>
</symbol>
<symbol id="icon-bar-chart" viewBox="0 0 32 32">
<title>bar-chart</title>
<path d="M30.525 30.75h-1.371v-19.904c0-0.926-0.754-1.68-1.68-1.68h-3.064c-0.926 0-1.68 0.754-1.68 1.68v19.904h-3.481v-10.886c0-0.926-0.754-1.68-1.68-1.68h-3.064c-0.926 0-1.68 0.754-1.68 1.68v10.886h-3.481v-5.638c0-0.926-0.754-1.68-1.68-1.68h-3.064c-0.926 0-1.68 0.754-1.68 1.68v5.638h-1.445c-0.345 0-0.625 0.28-0.625 0.625s0.28 0.625 0.625 0.625h29.050c0.345 0 0.625-0.28 0.625-0.625s-0.28-0.625-0.625-0.625zM8.094 30.75h-3.924v-5.638c0-0.237 0.193-0.43 0.43-0.43h3.064c0.237 0 0.43 0.193 0.43 0.43v5.638zM17.999 30.75h-3.924v-10.886c0-0.237 0.193-0.43 0.43-0.43h3.064c0.237 0 0.43 0.193 0.43 0.43v10.886zM27.904 30.75h-3.924v-19.904c0-0.237 0.193-0.43 0.43-0.43h3.064c0.237 0 0.43 0.193 0.43 0.43v19.904z"></path>
<path d="M29.153 0.657c0.009-0.171-0.051-0.344-0.181-0.474s-0.304-0.19-0.474-0.181c-0.010-0-0.020-0.002-0.030-0.002h-3.781c-0.345 0-0.625 0.28-0.625 0.625s0.28 0.625 0.625 0.625h2.335l-6.179 6.179-2.33-2.33c-0.117-0.117-0.276-0.183-0.442-0.183s-0.325 0.066-0.442 0.183l-11.236 11.236c-0.244 0.244-0.244 0.64 0 0.884 0.122 0.122 0.282 0.183 0.442 0.183s0.32-0.061 0.442-0.183l10.794-10.794 2.33 2.33c0.244 0.244 0.64 0.244 0.884 0l6.62-6.62v2.113c0 0.345 0.28 0.625 0.625 0.625s0.625-0.28 0.625-0.625v-3.56c0-0.010-0.001-0.020-0.002-0.030z"></path>
<path d="M5.353 18.957c0 0.345-0.28 0.625-0.625 0.625s-0.625-0.28-0.625-0.625c0-0.345 0.28-0.625 0.625-0.625s0.625 0.28 0.625 0.625z"></path>
</symbol>
<symbol id="icon-consultation" viewBox="0 0 32 32">
<title>consultation</title>
<path d="M9.73 19.438h-2.059v-3.187c0-1.037-0.414-1.978-1.084-2.669 1.145-0.761 1.902-2.062 1.902-3.537 0-2.34-1.904-4.245-4.245-4.245s-4.245 1.904-4.245 4.245c0 1.275 0.566 2.42 1.459 3.198-0.888 0.703-1.459 1.789-1.459 3.007v9.491h6.258v6.258h6.305v-9.73c0-1.562-1.271-2.832-2.832-2.832zM4.245 7.676c1.307 0 2.37 1.063 2.37 2.37s-1.063 2.37-2.37 2.37-2.37-1.063-2.37-2.37 1.063-2.37 2.37-2.37zM10.688 30.125h-2.555v-6.258h-6.258v-7.616c0-1.081 0.88-1.961 1.961-1.961s1.961 0.88 1.961 1.961v5.062h3.934c0.528 0 0.957 0.429 0.957 0.957z"></path>
<path d="M30.541 13.244c0.893-0.779 1.459-1.923 1.459-3.198 0-2.341-1.904-4.245-4.245-4.245s-4.245 1.904-4.245 4.245c0 1.475 0.757 2.776 1.902 3.537-0.67 0.691-1.084 1.632-1.084 2.668v3.187h-2.059c-1.562 0-2.832 1.27-2.832 2.832v9.73h6.305v-6.258h6.258v-9.491c0-1.218-0.571-2.304-1.459-3.007zM27.755 7.676c1.307 0 2.37 1.063 2.37 2.37s-1.063 2.37-2.37 2.37-2.37-1.063-2.37-2.37 1.063-2.37 2.37-2.37zM30.125 23.867h-6.258v6.258h-2.555v-7.855c0-0.528 0.429-0.957 0.957-0.957h3.934v-5.062c0-1.081 0.88-1.961 1.961-1.961s1.961 0.88 1.961 1.961z"></path>
<path d="M22 7.604v-4.958c0-1.459-1.187-2.646-2.646-2.646h-6.709c-1.459 0-2.646 1.187-2.646 2.646v4.958c0 1.459 1.187 2.646 2.646 2.646h1.136l2.219 3.843 2.218-3.843h1.136c1.459 0 2.646-1.187 2.646-2.646zM20.125 7.604c0 0.425-0.346 0.771-0.771 0.771h-2.218l-1.136 1.968-1.136-1.968h-2.218c-0.425 0-0.771-0.346-0.771-0.771v-4.958c0-0.425 0.346-0.771 0.771-0.771h6.708c0.425 0 0.771 0.346 0.771 0.771z"></path>
</symbol>
<symbol id="icon-facebook-logo" viewBox="0 0 32 32">
<title>facebook-logo</title>
<path d="M32 5.334c0-2.803-2.53-5.334-5.333-5.334h-21.333c-2.803 0-5.333 2.531-5.333 5.334v21.333c0 2.802 2.53 5.334 5.334 5.334h10.666v-12.089h-3.911v-5.333h3.911v-2.078c0-3.584 2.691-6.811 6-6.811h4.311v5.333h-4.311c-0.472 0-1.022 0.573-1.022 1.431v2.125h5.333v5.333h-5.333v12.089h5.689c2.803 0 5.333-2.531 5.333-5.334v-21.333z"></path>
</symbol>
<symbol id="icon-fb-icon" viewBox="0 0 23 32">
<title>fb-icon</title>
<path d="M14.369 7.184h3.671v-5.42h-4.314v0.020c-5.224 0.184-6.298 3.124-6.392 6.208h-0.010v2.706h-3.557v5.308h3.557v14.229h5.365v-14.227h4.392l0.847-5.308h-5.239v-1.635c0-1.043 0.692-1.88 1.68-1.88z"></path>
</symbol>
<symbol id="icon-globe-bg" viewBox="0 0 31 32">
<title>globe-bg</title>
<path fill="#58595b" style="fill: var(--color2, #58595b)" d="M29.137 24.050c-2.83 2.813-7.975 4.191-13.519 4.191s-10.689-1.378-13.519-4.191c1.062 1.876 1.983 2.747 3.651 4.357 2.921 1.585 6.739 2.257 9.876 2.257 3.129 0 6.954-0.672 9.876-2.257 1.651-1.618 2.573-2.49 3.635-4.357zM15.618 27.394c6.158 0 10.44-1.195 13.942-4.149 0.88-1.784 1.444-3.768 1.618-5.859-2.091 3.245-10.307 5.162-15.56 5.162s-13.469-1.909-15.56-5.162c0.166 2.1 0.739 4.075 1.618 5.859 3.502 2.963 7.793 4.149 13.942 4.149zM15.618 21.668c6.539 0 14.481-2.631 15.618-5.27 0.050-2.191-0.39-4.573-1.12-6.365 0.257 2.307-6.075 4.88-14.498 4.88s-14.755-2.573-14.498-4.88c-0.73 1.793-1.17 4.174-1.12 6.365 1.137 2.631 9.079 5.27 15.618 5.27zM15.618 13.9c8.705 0 15.104-2.813 13.776-5.444-0.647-1.278-1.477-2.423-2.481-3.502 1.436 1.784-3.668 4.008-11.303 4.008s-12.739-2.224-11.303-4.008c-0.988 1.079-1.817 2.224-2.465 3.502-1.328 2.631 5.071 5.444 13.776 5.444zM15.618 7.286c6.838 0 12.091-2.042 9.469-4.008-2.764-2.058-5.793-3.278-9.469-3.278s-6.705 1.22-9.461 3.278c-2.631 1.967 2.631 4.008 9.461 4.008zM15.618 31.236c1.942 0 5.593-0.465 8.158-1.568-2.373 1.485-5.162 2.34-8.158 2.34-2.988 0-5.784-0.855-8.158-2.34 2.573 1.104 6.216 1.568 8.158 1.568z"></path>
</symbol>
<symbol id="icon-handshake" viewBox="0 0 32 32">
<title>handshake</title>
<path d="M31.817 12.129l-5.923-5.923c-0.244-0.244-0.64-0.244-0.884 0s-0.244 0.64 0 0.884l5.481 5.481-3.205 3.205c-0.098 0.098-0.258 0.098-0.356 0l-6.328-6.328c-0.098-0.098-0.098-0.258 0-0.356l2.151-2.151c0.244-0.244 0.244-0.64 0-0.884s-0.64-0.244-0.884 0l-2.151 2.151c-0.445 0.446-0.551 1.103-0.319 1.651l-0.727 0.727h-5.086l-0.918-0.918c0.035-0.129 0.054-0.263 0.054-0.399 0-0.401-0.156-0.778-0.44-1.062l-2.093-2.093c-0.244-0.244-0.64-0.244-0.884 0s-0.244 0.64 0 0.884l2.093 2.093c0.064 0.064 0.074 0.139 0.074 0.178s-0.010 0.114-0.074 0.178l-6.33 6.329c-0.002 0.002-0.004 0.004-0.006 0.006-0.062 0.058-0.133 0.067-0.17 0.067-0.039 0-0.114-0.010-0.178-0.074l-3.204-3.205 5.555-5.555c0.244-0.244 0.244-0.64 0-0.884s-0.64-0.244-0.884 0l-5.997 5.997c-0.244 0.244-0.244 0.64 0 0.884l3.647 3.647c0.293 0.293 0.678 0.439 1.062 0.439 0.177 0 0.353-0.032 0.521-0.094l2.053 2.053c-0.159 0.299-0.25 0.64-0.25 1.002 0 1.178 0.959 2.137 2.137 2.137 0.003 0 0.005-0 0.008-0 0 0 0 0 0 0 0 1.176 0.954 2.132 2.129 2.137 0 0.001-0 0.002-0 0.003 0 1.178 0.959 2.137 2.137 2.137 0.363 0 0.704-0.091 1.003-0.251l0.764 0.764c0.358 0.358 0.835 0.556 1.341 0.556s0.983-0.197 1.341-0.556c0.339-0.339 0.534-0.784 0.554-1.261 0.462-0.023 0.917-0.21 1.269-0.563 0.372-0.372 0.573-0.867 0.566-1.393 0-0.001-0-0.002-0-0.003 0.544-0.034 1.044-0.272 1.414-0.675 0.372-0.405 0.556-0.916 0.554-1.426 0.523-0.015 1.013-0.226 1.384-0.597 0.388-0.388 0.6-0.903 0.598-1.451-0.001-0.323-0.077-0.633-0.218-0.913l2.051-1.875c0.257 0.18 0.558 0.271 0.859 0.271 0.385 0 0.769-0.146 1.062-0.439l3.647-3.647c0.244-0.244 0.244-0.64 0-0.884zM9.352 20.944c-0.489 0-0.887-0.398-0.887-0.887s0.398-0.887 0.887-0.887 0.887 0.398 0.887 0.887c-0 0.489-0.398 0.887-0.887 0.887zM12.157 22.784c-0.025 0.024-0.050 0.049-0.075 0.074-0.156 0.138-0.361 0.223-0.586 0.223-0.489 0-0.886-0.398-0.886-0.887s0.398-0.887 0.886-0.887 0.887 0.398 0.887 0.887c-0 0.227-0.086 0.433-0.226 0.59zM14.261 24.952c-0.003 0.003-0.006 0.005-0.009 0.008s-0.006 0.006-0.009 0.010c-0.16 0.156-0.378 0.252-0.618 0.252-0.489-0-0.887-0.398-0.887-0.887 0-0.226 0.086-0.433 0.226-0.589 0.025-0.024 0.050-0.049 0.075-0.074 0.156-0.138 0.361-0.223 0.586-0.223 0.489 0 0.887 0.398 0.887 0.887 0 0.24-0.096 0.457-0.251 0.617zM22.934 20.183c-0.15 0.15-0.349 0.232-0.56 0.232s-0.41-0.082-0.56-0.232l-1.299-1.299c-0.244-0.244-0.64-0.244-0.884 0s-0.244 0.64 0 0.884l1.299 1.299c0 0 0 0 0 0l0.004 0.004c0.322 0.322 0.333 0.838 0.025 1.173-0.155 0.169-0.366 0.266-0.595 0.274s-0.447-0.074-0.613-0.232l-1.251-1.184c-0.251-0.237-0.646-0.227-0.884 0.024s-0.227 0.646 0.024 0.884l1.362 1.289c0.135 0.128 0.21 0.3 0.213 0.486s-0.068 0.36-0.2 0.491c-0.266 0.266-0.698 0.266-0.964 0l-0.631-0.631c-0.244-0.244-0.64-0.244-0.884 0-0.122 0.122-0.183 0.282-0.183 0.442s0.061 0.32 0.183 0.442l0.656 0.656c0.122 0.122 0.189 0.284 0.189 0.457s-0.067 0.335-0.189 0.457c-0.122 0.122-0.284 0.189-0.457 0.189s-0.335-0.067-0.457-0.189l-0.765-0.765c0.159-0.299 0.25-0.64 0.25-1.001 0-1.176-0.954-2.132-2.129-2.137 0-0.001 0-0.002 0-0.003 0-1.178-0.959-2.137-2.137-2.137-0.003 0-0.005 0-0.008 0 0-0 0-0 0-0 0-1.178-0.959-2.137-2.137-2.137-0.362 0-0.704 0.091-1.003 0.251l-1.954-1.954 5.528-5.528 0.962 0.963c0.117 0.117 0.276 0.183 0.442 0.183h0.809l-2.468 2.468c-0.377 0.377-0.585 0.879-0.585 1.413s0.208 1.035 0.585 1.413c0.377 0.377 0.879 0.585 1.413 0.585s1.035-0.208 1.413-0.585l2.093-2.093 2.292 0.025 4.052 3.998c0.151 0.149 0.235 0.349 0.236 0.561s-0.082 0.412-0.232 0.563zM23.386 17.752l-3.809-3.758c-0-0-0-0-0-0l-0.006-0.005c-0.141-0.139-0.33-0.197-0.513-0.175l-2.721-0.030c-0.169-0.001-0.33 0.064-0.449 0.183l-2.279 2.279c-0.141 0.141-0.329 0.219-0.528 0.219s-0.387-0.078-0.528-0.219c-0.141-0.141-0.219-0.329-0.219-0.528s0.078-0.387 0.219-0.528l3.352-3.352h3.026c0.166 0 0.325-0.066 0.442-0.183l0.833-0.833 5.14 5.14-1.96 1.792z"></path>
<path d="M28.020 12.859c0 0.345-0.279 0.624-0.624 0.624s-0.624-0.279-0.624-0.624c0-0.345 0.279-0.624 0.624-0.624s0.624 0.279 0.624 0.624z"></path>
<path d="M5.164 12.921c0 0.345-0.279 0.624-0.624 0.624s-0.624-0.279-0.624-0.624c0-0.345 0.279-0.624 0.624-0.624s0.624 0.279 0.624 0.624z"></path>
<path d="M8.815 5.134c0 0.345-0.279 0.624-0.624 0.624s-0.624-0.279-0.624-0.624c0-0.345 0.279-0.624 0.624-0.624s0.624 0.279 0.624 0.624z"></path>
<path d="M24.421 5.084c0 0.345-0.279 0.624-0.624 0.624s-0.624-0.279-0.624-0.624c0-0.345 0.279-0.624 0.624-0.624s0.624 0.279 0.624 0.624z"></path>
</symbol>
<symbol id="icon-instagram-logo" viewBox="0 0 32 32">
<title>instagram-logo</title>
<path d="M23.169 0h-14.338c-4.869 0-8.831 3.962-8.831 8.831v14.338c0 4.869 3.961 8.831 8.831 8.831h14.338c4.87 0 8.831-3.962 8.831-8.831v-14.338c0-4.869-3.961-8.831-8.831-8.831zM29.161 23.169c0 3.304-2.688 5.992-5.992 5.992h-14.338c-3.304 0-5.991-2.688-5.991-5.992v-14.338c0-3.304 2.688-5.992 5.991-5.992h14.338c3.304 0 5.992 2.688 5.992 5.992v14.338z"></path>
<path d="M16 7.755c-4.547 0-8.246 3.699-8.246 8.246s3.699 8.245 8.246 8.245 8.246-3.699 8.246-8.245c0-4.547-3.699-8.246-8.246-8.246zM16 21.406c-2.981 0-5.406-2.425-5.406-5.406s2.425-5.406 5.406-5.406 5.406 2.425 5.406 5.406c0 2.981-2.425 5.406-5.406 5.406z"></path>
<path d="M24.591 5.347c-0.547 0-1.084 0.221-1.471 0.609-0.388 0.386-0.611 0.924-0.611 1.473 0 0.547 0.223 1.085 0.611 1.473 0.386 0.386 0.924 0.609 1.471 0.609 0.549 0 1.085-0.223 1.473-0.609 0.388-0.388 0.609-0.926 0.609-1.473 0-0.549-0.221-1.086-0.609-1.473-0.386-0.388-0.924-0.609-1.473-0.609z"></path>
</symbol>
<symbol id="icon-linkedin-logo" viewBox="0 0 32 32">
<title>linkedin-logo</title>
<path d="M32 19.458v11.831h-6.859v-11.038c0-2.773-0.992-4.665-3.475-4.665-1.895 0-3.023 1.275-3.519 2.509-0.181 0.441-0.227 1.055-0.227 1.672v11.522h-6.861c0 0 0.092-18.695 0-20.632h6.86v2.925c-0.014 0.022-0.032 0.045-0.045 0.067h0.045v-0.067c0.911-1.404 2.539-3.409 6.183-3.409 4.514-0 7.898 2.949 7.898 9.286zM3.882 0.711c-2.347 0-3.882 1.54-3.882 3.564 0 1.98 1.491 3.567 3.791 3.567h0.046c2.393 0 3.881-1.586 3.881-3.567-0.045-2.025-1.488-3.564-3.835-3.564zM0.407 31.289h6.858v-20.632h-6.858v20.632z"></path>
</symbol>
<symbol id="icon-mobesLogo" viewBox="0 0 45 32">
<title>mobesLogo</title>
<path fill="#000" style="fill: var(--color3, #000)" d="M26.215 23.83l0.348-15.207-19.8-0.452-0.348 15.207z"></path>
<path fill="#000" style="fill: var(--color3, #000)" d="M37.607 17.711l0.141-5.874-3.607-0.081-0.133 5.874z"></path>
<path fill="#000" style="fill: var(--color3, #000)" d="M33.526 17.563l0.126-5.593-3.141-0.067-0.126 5.593z"></path>
<path fill="#000" style="fill: var(--color3, #000)" d="M29.904 17.578l0.126-5.607-3.578-0.074-0.126 5.6z"></path>
<path fill="#000" style="fill: var(--color3, #000)" d="M36.815 18.615h0.089c0.067 0 0.119-0.007 0.141-0.015 0.030-0.007 0.044-0.030 0.067-0.052 0.015-0.022 0.022-0.052 0.022-0.081 0-0.052-0.022-0.096-0.067-0.119-0.030-0.022-0.089-0.030-0.178-0.030h-0.074v0.296zM36.541 18.052h0.289c0.156 0 0.267 0.015 0.341 0.044 0.067 0.030 0.126 0.074 0.163 0.141s0.059 0.141 0.059 0.23c0 0.104-0.030 0.185-0.081 0.252s-0.126 0.111-0.215 0.141c-0.052 0.015-0.148 0.022-0.289 0.022v0.607h-0.274v-1.437zM34.23 18.052h0.274v0.933c0 0.081 0.007 0.141 0.022 0.17 0.015 0.037 0.037 0.059 0.067 0.081s0.074 0.030 0.119 0.030c0.052 0 0.089-0.007 0.126-0.030s0.059-0.052 0.074-0.081c0.015-0.037 0.022-0.096 0.022-0.193v-0.896h0.274v0.859c0 0.148-0.007 0.244-0.022 0.304s-0.044 0.111-0.096 0.163c-0.044 0.052-0.096 0.089-0.156 0.119-0.059 0.022-0.133 0.037-0.207 0.037-0.104 0-0.193-0.022-0.274-0.074-0.074-0.044-0.133-0.111-0.163-0.178-0.030-0.074-0.052-0.193-0.052-0.363v-0.881zM32.207 18.289c-0.133 0-0.244 0.044-0.333 0.141-0.089 0.089-0.133 0.207-0.133 0.356 0 0.156 0.059 0.281 0.17 0.378 0.089 0.074 0.193 0.111 0.304 0.111 0.133 0 0.237-0.044 0.333-0.141 0.089-0.096 0.141-0.207 0.141-0.348s-0.044-0.252-0.141-0.348c-0.096-0.104-0.207-0.148-0.341-0.148zM32.207 18.022c0.2 0 0.378 0.074 0.526 0.222s0.222 0.326 0.222 0.541c0 0.207-0.074 0.385-0.215 0.533s-0.319 0.215-0.526 0.215c-0.215 0-0.393-0.074-0.541-0.222-0.141-0.148-0.215-0.326-0.215-0.533 0-0.141 0.037-0.267 0.096-0.378 0.067-0.119 0.156-0.207 0.274-0.274 0.119-0.074 0.244-0.104 0.378-0.104zM29.637 18.615h0.089c0.089 0 0.148-0.015 0.178-0.037s0.052-0.059 0.052-0.111c0-0.030-0.007-0.059-0.022-0.081s-0.037-0.037-0.067-0.052c-0.030-0.007-0.074-0.015-0.148-0.015h-0.074v0.296zM29.363 18.052h0.289c0.156 0 0.274 0.015 0.341 0.044s0.119 0.074 0.163 0.141c0.044 0.067 0.059 0.141 0.059 0.237s-0.022 0.17-0.067 0.237c-0.044 0.067-0.111 0.111-0.207 0.141l0.341 0.637h-0.296l-0.326-0.607h-0.022v0.607h-0.274v-1.437zM27.97 18.289l-0.193 0.193c-0.119-0.126-0.267-0.193-0.43-0.193-0.141 0-0.259 0.044-0.356 0.141s-0.141 0.207-0.141 0.341c0 0.141 0.052 0.259 0.148 0.356s0.222 0.141 0.363 0.141c0.096 0 0.178-0.022 0.237-0.059 0.067-0.037 0.119-0.104 0.156-0.185h-0.415v-0.259h0.726v0.059c0 0.126-0.030 0.244-0.096 0.356s-0.148 0.2-0.252 0.259c-0.104 0.059-0.222 0.089-0.363 0.089-0.148 0-0.281-0.030-0.4-0.096s-0.207-0.156-0.274-0.274c-0.067-0.119-0.104-0.252-0.104-0.385 0-0.193 0.059-0.356 0.185-0.496 0.148-0.17 0.341-0.252 0.585-0.252 0.126 0 0.244 0.022 0.348 0.067 0.096 0.037 0.185 0.104 0.274 0.2z"></path>
<path fill="#000" style="fill: var(--color3, #000)" d="M25.526 17.911l0.133-6.141-6.141-0.141-0.141 6.141z"></path>
<path fill="#fff" style="fill: var(--color4, #fff)" d="M20.933 17.237c-1.133-0.8-1.578-2.23-1.178-3.489 0.022-0.067 0.067-0.222 0.111-0.267 0.17-0.178 0.037 0.274 0.015 0.363-0.319 1.222 0.133 2.563 1.222 3.333 0.356 0.259 0.081 0.237-0.17 0.059z"></path>
<path fill="#fff" style="fill: var(--color4, #fff)" d="M22.533 11.948c1.333 0 2.415 0.807 2.415 1.807s-1.081 1.807-2.415 1.807c-1.333 0-2.415-0.807-2.415-1.807s1.081-1.807 2.415-1.807z"></path>
<path fill="#000" style="fill: var(--color3, #000)" d="M19.289 17.652l0.133-5.815-6.785-0.156-0.133 5.815z"></path>
<path fill="#fff" style="fill: var(--color4, #fff)" d="M22.504 13.378c0.644 0 1.17 0.415 1.17 0.933s-0.526 0.933-1.17 0.933c-0.644 0-1.17-0.415-1.17-0.933s0.526-0.933 1.17-0.933z"></path>
</symbol>
<symbol id="icon-placeholder" viewBox="0 0 32 32">
<title>placeholder</title>
<path d="M16 0c-6.203 0-11.25 5.047-11.25 11.25 0 2.096 0.581 4.141 1.679 5.916l8.93 14.391c0.171 0.276 0.472 0.443 0.797 0.443 0.003 0 0.005 0 0.007 0 0.327-0.003 0.629-0.175 0.797-0.456l8.703-14.53c1.038-1.737 1.587-3.73 1.587-5.764 0-6.203-5.047-11.25-11.25-11.25zM24.054 16.051l-7.912 13.21-8.119-13.084c-0.915-1.477-1.41-3.181-1.41-4.928 0-5.169 4.218-9.387 9.387-9.387s9.381 4.218 9.381 9.387c0 1.695-0.463 3.355-1.327 4.801z"></path>
<path d="M16 5.625c-3.102 0-5.625 2.523-5.625 5.625 0 3.082 2.482 5.625 5.625 5.625 3.181 0 5.625-2.577 5.625-5.625 0-3.102-2.523-5.625-5.625-5.625zM16 15.012c-2.079 0-3.762-1.69-3.762-3.762 0-2.068 1.695-3.763 3.762-3.763s3.756 1.695 3.756 3.763c0 2.043-1.645 3.762-3.756 3.762z"></path>
</symbol>
<symbol id="icon-price-tag" viewBox="0 0 32 32">
<title>price-tag</title>
<path d="M31.578 0.156c-0.209-0.209-0.546-0.209-0.754 0l-1.977 1.977h-12.418l-15.611 15.74c-0.355 0.355-0.551 0.828-0.551 1.331s0.196 0.976 0.551 1.331l10.916 10.916c0.366 0.366 0.847 0.55 1.329 0.55 0.484 0 0.967-0.185 1.338-0.555l15.201-15.612v-12.945l1.977-1.977c0.209-0.209 0.209-0.546 0-0.754zM28.534 15.4l-14.894 15.296c-0.318 0.318-0.835 0.318-1.153 0l-10.916-10.916c-0.318-0.318-0.318-0.835 0.002-1.155l15.3-15.426h10.907l-2.578 2.578c-0.422-0.279-0.926-0.444-1.468-0.444-1.47 0-2.667 1.196-2.667 2.667s1.196 2.667 2.667 2.667 2.667-1.196 2.667-2.667c0-0.542-0.165-1.046-0.444-1.468l2.578-2.578v11.446zM25.334 8c0 0.882-0.718 1.6-1.6 1.6s-1.6-0.718-1.6-1.6 0.718-1.6 1.6-1.6c0.246 0 0.477 0.061 0.685 0.161l-1.062 1.062c-0.209 0.209-0.209 0.546 0 0.754 0.104 0.104 0.241 0.156 0.377 0.156s0.273-0.052 0.377-0.156l1.062-1.062c0.1 0.209 0.161 0.439 0.161 0.685z"></path>
</symbol>
<symbol id="icon-search" viewBox="0 0 32 32">
<title>search</title>
<path d="M22.022 19.38h-1.392l-0.493-0.476c1.727-2.010 2.766-4.618 2.766-7.452 0.001-6.326-5.127-11.453-11.451-11.453s-11.451 5.127-11.451 11.453 5.127 11.451 11.451 11.451c2.836 0 5.444-1.039 7.453-2.766l0.475 0.493v1.392l8.809 8.791 2.625-2.625-8.791-8.809zM11.451 19.38c-4.388 0-7.928-3.542-7.928-7.928 0-4.388 3.541-7.929 7.928-7.929s7.928 3.542 7.928 7.929c0 4.386-3.54 7.928-7.928 7.928z"></path>
</symbol>
<symbol id="icon-sertification" viewBox="0 0 25 32">
<title>sertification</title>
<path d="M24.883 11.324l-2.434-2.513 0.489-3.466c0.079-0.529-0.278-1.019-0.807-1.111l-3.453-0.609-1.64-3.095c-0.251-0.476-0.833-0.661-1.31-0.423l-3.148 1.535-3.148-1.535c-0.476-0.238-1.058-0.040-1.31 0.423l-1.64 3.095-3.453 0.609c-0.529 0.093-0.886 0.582-0.807 1.111l0.489 3.466-2.434 2.513c-0.37 0.384-0.37 0.992 0 1.376l2.434 2.513-0.489 3.466c-0.079 0.529 0.278 1.019 0.807 1.111l2.765 0.489v10.728c0 0.344 0.172 0.661 0.476 0.847 0.159 0.093 0.344 0.145 0.516 0.145 0.146 0 0.304-0.040 0.45-0.106l5.344-2.672 5.344 2.672c0.304 0.159 0.675 0.132 0.966-0.040 0.291-0.185 0.476-0.503 0.476-0.847v-10.728l2.765-0.489c0.529-0.093 0.886-0.582 0.807-1.111l-0.489-3.466 2.434-2.513c0.37-0.384 0.37-0.992 0-1.376zM13.017 27.224c-0.278-0.145-0.609-0.145-0.886 0l-4.352 2.183v-6.561l0.344 0.648c0.251 0.476 0.833 0.661 1.31 0.423l3.148-1.535 3.148 1.535c0.146 0.066 0.291 0.106 0.437 0.106 0.357 0 0.701-0.198 0.873-0.529l0.344-0.648v6.561l-4.365-2.183zM20.676 14.181c-0.212 0.225-0.317 0.529-0.265 0.833l0.423 3.003-2.976 0.516c-0.304 0.053-0.556 0.238-0.701 0.516l-1.415 2.672-2.712-1.323c-0.132-0.066-0.291-0.106-0.437-0.106s-0.304 0.040-0.437 0.106l-2.712 1.323-1.442-2.672c-0.146-0.265-0.41-0.463-0.701-0.516l-2.976-0.516 0.423-3.003c0.040-0.304-0.053-0.609-0.265-0.833l-2.117-2.17 2.103-2.169c0.212-0.225 0.317-0.529 0.265-0.833l-0.423-2.99 2.976-0.516c0.304-0.053 0.556-0.238 0.701-0.516l1.415-2.672 2.712 1.323c0.278 0.132 0.595 0.132 0.873 0l2.712-1.323 1.415 2.672c0.145 0.265 0.41 0.463 0.701 0.516l2.976 0.516-0.423 2.99c-0.040 0.304 0.053 0.609 0.265 0.833l2.103 2.169-2.064 2.169z"></path>
<path d="M12.58 5.225c-3.744 0-6.786 3.043-6.786 6.786s3.043 6.786 6.786 6.786c3.744 0 6.786-3.043 6.786-6.786s-3.043-6.786-6.786-6.786zM12.58 16.814c-2.646 0-4.802-2.156-4.802-4.802s2.156-4.802 4.802-4.802c2.646 0 4.802 2.156 4.802 4.802s-2.156 4.802-4.802 4.802z"></path>
<path d="M14.604 9.498l-2.937 2.924-1.111-1.111c-0.384-0.384-1.019-0.384-1.402 0s-0.384 1.019 0 1.402l1.812 1.812c0.198 0.198 0.45 0.291 0.701 0.291s0.503-0.093 0.701-0.291l3.638-3.625c0.384-0.384 0.384-1.019 0-1.402-0.397-0.397-1.019-0.397-1.402 0z"></path>
</symbol>
<symbol id="icon-settings" viewBox="0 0 32 32">
<title>settings</title>
<path d="M30.362 12.641l-2.246-0.381c-0.234-0.755-0.535-1.484-0.902-2.179l1.324-1.852c0.562-0.789 0.475-1.865-0.214-2.547l-1.992-1.992c-0.374-0.374-0.869-0.582-1.397-0.582-0.414 0-0.809 0.127-1.143 0.368l-1.858 1.324c-0.722-0.381-1.477-0.695-2.259-0.929l-0.374-2.219c-0.16-0.956-0.983-1.651-1.952-1.651h-2.814c-0.969 0-1.791 0.695-1.952 1.651l-0.388 2.273c-0.749 0.234-1.477 0.541-2.173 0.916l-1.838-1.324c-0.334-0.241-0.735-0.368-1.15-0.368-0.528 0-1.029 0.207-1.397 0.582l-1.999 1.992c-0.682 0.682-0.775 1.758-0.214 2.547l1.337 1.878c-0.368 0.702-0.662 1.431-0.889 2.186l-2.219 0.374c-0.956 0.16-1.651 0.983-1.651 1.952v2.814c0 0.969 0.695 1.791 1.651 1.952l2.273 0.388c0.234 0.749 0.541 1.477 0.916 2.173l-1.317 1.832c-0.562 0.789-0.475 1.865 0.214 2.547l1.992 1.992c0.374 0.374 0.869 0.582 1.397 0.582 0.414 0 0.809-0.127 1.143-0.368l1.878-1.337c0.675 0.354 1.384 0.642 2.112 0.869l0.374 2.246c0.16 0.956 0.983 1.651 1.952 1.651h2.821c0.969 0 1.791-0.695 1.952-1.651l0.381-2.246c0.755-0.234 1.484-0.535 2.179-0.902l1.852 1.324c0.334 0.241 0.735 0.368 1.15 0.368v0c0.528 0 1.023-0.207 1.397-0.582l1.992-1.992c0.682-0.682 0.775-1.758 0.214-2.547l-1.324-1.858c0.368-0.702 0.675-1.431 0.902-2.179l2.246-0.374c0.956-0.16 1.651-0.983 1.651-1.952v-2.814c0.013-0.969-0.682-1.791-1.638-1.952zM30.208 17.407c0 0.087-0.060 0.16-0.147 0.174l-2.808 0.468c-0.354 0.060-0.635 0.321-0.722 0.662-0.254 0.983-0.642 1.925-1.163 2.801-0.18 0.308-0.167 0.689 0.040 0.983l1.651 2.326c0.047 0.067 0.040 0.167-0.020 0.227l-1.992 1.992c-0.047 0.047-0.094 0.053-0.127 0.053-0.040 0-0.074-0.013-0.1-0.033l-2.32-1.651c-0.287-0.207-0.675-0.221-0.983-0.040-0.876 0.521-1.818 0.909-2.801 1.163-0.348 0.087-0.608 0.374-0.662 0.722l-0.475 2.808c-0.013 0.087-0.087 0.147-0.174 0.147h-2.814c-0.087 0-0.16-0.060-0.174-0.147l-0.468-2.808c-0.060-0.354-0.321-0.635-0.662-0.722-0.956-0.247-1.878-0.628-2.741-1.123-0.14-0.080-0.301-0.12-0.455-0.12-0.181 0-0.368 0.053-0.521 0.167l-2.34 1.665c-0.033 0.020-0.067 0.033-0.1 0.033-0.027 0-0.080-0.007-0.127-0.053l-1.992-1.992c-0.060-0.060-0.067-0.154-0.020-0.227l1.644-2.306c0.207-0.294 0.221-0.682 0.040-0.989-0.521-0.869-0.923-1.812-1.176-2.794-0.094-0.341-0.374-0.602-0.722-0.662l-2.828-0.481c-0.087-0.013-0.147-0.087-0.147-0.174v-2.814c0-0.087 0.060-0.16 0.147-0.174l2.788-0.468c0.354-0.060 0.642-0.321 0.729-0.668 0.247-0.983 0.628-1.932 1.143-2.808 0.181-0.307 0.16-0.689-0.047-0.976l-1.665-2.34c-0.047-0.067-0.040-0.167 0.020-0.227l1.992-1.992c0.047-0.047 0.094-0.053 0.127-0.053 0.040 0 0.074 0.013 0.1 0.033l2.306 1.644c0.294 0.207 0.682 0.221 0.989 0.040 0.869-0.521 1.812-0.923 2.794-1.176 0.341-0.094 0.602-0.374 0.662-0.722l0.481-2.828c0.013-0.087 0.087-0.147 0.174-0.147h2.814c0.087 0 0.16 0.060 0.174 0.147l0.468 2.788c0.060 0.354 0.321 0.642 0.668 0.729 1.009 0.254 1.972 0.648 2.868 1.176 0.308 0.181 0.689 0.167 0.983-0.040l2.306-1.658c0.033-0.020 0.067-0.033 0.1-0.033 0.027 0 0.080 0.007 0.127 0.053l1.992 1.992c0.060 0.060 0.067 0.154 0.020 0.227l-1.651 2.32c-0.207 0.287-0.221 0.675-0.040 0.983 0.521 0.876 0.909 1.818 1.163 2.801 0.087 0.348 0.374 0.608 0.722 0.662l2.808 0.475c0.087 0.013 0.147 0.087 0.147 0.174v2.814h-0.007z"></path>
<path d="M16.003 9.091c-3.81 0-6.905 3.095-6.905 6.905s3.095 6.905 6.905 6.905 6.905-3.095 6.905-6.905-3.095-6.905-6.905-6.905zM16.003 21.097c-2.814 0-5.1-2.286-5.1-5.1s2.286-5.1 5.1-5.1 5.1 2.286 5.1 5.1-2.286 5.1-5.1 5.1z"></path>
</symbol>
<symbol id="icon-team" viewBox="0 0 32 32">
<title>team</title>
<path d="M28.227 21.131c0 0.345-0.28 0.625-0.625 0.625s-0.625-0.28-0.625-0.625c0-0.345 0.28-0.625 0.625-0.625s0.625 0.28 0.625 0.625z"></path>
<path d="M4.435 21.131c0 0.345-0.28 0.625-0.625 0.625s-0.625-0.28-0.625-0.625c0-0.345 0.28-0.625 0.625-0.625s0.625 0.28 0.625 0.625z"></path>
<path d="M30.894 30.75h-5.367l-0.033-15.361c-0.001-0.345-0.28-0.624-0.625-0.624-0 0-0.001 0-0.001 0-0.345 0.001-0.625 0.281-0.624 0.626l0.033 15.358h-1.816l-0.016-6.834c-0.001-0.345-0.28-0.624-0.625-0.624-0 0-0.001 0-0.002 0-0.345 0.001-0.625 0.281-0.624 0.627l0.016 6.831h-1.518v-8.273c1.769-0.156 3.161-1.61 3.161-3.376v-6.058c0-0.963-0.204-1.907-0.595-2.779 1.234 0.082 2.384 0.585 3.267 1.438 0.967 0.934 1.502 2.176 1.504 3.498l0.011 3.557c0.001 0.345 0.281 0.623 0.625 0.623 0.001 0 0.001 0 0.002 0 0.345-0.001 0.624-0.282 0.623-0.627l-0.011-3.557c-0.004-1.662-0.673-3.223-1.886-4.394-0.693-0.669-1.516-1.164-2.412-1.465 0.635-0.605 1.032-1.458 1.030-2.402-0.004-1.821-1.487-3.3-3.307-3.3-0.002 0-0.005 0-0.007 0-0.53 0.001-1.058 0.131-1.525 0.376-0.306 0.16-0.424 0.538-0.264 0.844s0.538 0.424 0.844 0.264c0.294-0.154 0.613-0.232 0.948-0.233 1.136-0.001 2.059 0.918 2.062 2.053s-0.919 2.059-2.053 2.062c-0.027 0-0.053 0.002-0.079 0.006-0.033 0.001-0.067 0.003-0.1 0.004-0.903-1.236-2.171-2.133-3.615-2.588 0.767-0.673 1.252-1.658 1.252-2.756-0-2.022-1.645-3.667-3.667-3.667s-3.667 1.645-3.667 3.667c0 1.151 0.533 2.179 1.365 2.852-1.325 0.478-2.487 1.335-3.331 2.488-0.099-0.004-0.198-0.007-0.296-0.007-0.047 0-0.093 0.001-0.14 0.002-0.011-0.001-0.023-0.002-0.034-0.002-1.134 0-2.057-0.923-2.057-2.057s0.923-2.057 2.057-2.057c0.343 0 0.682 0.086 0.981 0.248 0.303 0.165 0.683 0.053 0.848-0.251s0.053-0.683-0.251-0.848c-0.482-0.262-1.027-0.4-1.578-0.4-1.824 0-3.308 1.484-3.308 3.307 0 0.993 0.441 1.885 1.136 2.492-2.363 0.911-4.039 3.157-4.039 5.776v3.545c0 0.345 0.28 0.625 0.625 0.625s0.625-0.28 0.625-0.625v-3.545c0-2.592 2.070-4.725 4.697-4.941-0.389 0.87-0.593 1.812-0.593 2.774v6.058c0 1.8 1.447 3.277 3.266 3.384v8.265h-1.703v-6.833c0-0.345-0.28-0.625-0.625-0.625s-0.625 0.28-0.625 0.625v6.833h-1.537v-15.353c0-0.345-0.28-0.625-0.625-0.625s-0.625 0.28-0.625 0.625v15.353h-4.959c-0.345 0-0.625 0.28-0.625 0.625s0.28 0.625 0.625 0.625h29.787c0.345 0 0.625-0.28 0.625-0.625s-0.28-0.625-0.625-0.625zM13.082 3.667c0-1.333 1.084-2.417 2.417-2.417s2.417 1.084 2.417 2.417-1.084 2.417-2.417 2.417c-1.333 0-2.417-1.084-2.417-2.417zM19.067 12.629c-0.345 0-0.625 0.28-0.625 0.625v17.495h-2.226v-8.697c0-0.345-0.28-0.625-0.625-0.625s-0.625 0.28-0.625 0.625v8.697h-1.91v-17.496c0-0.345-0.28-0.625-0.625-0.625s-0.625 0.28-0.625 0.625v7.978c-1.129-0.102-2.016-1.019-2.016-2.131v-6.058c0-1.082 0.315-2.135 0.91-3.045 1.091-1.668 2.959-2.664 4.997-2.664 2.041 0 3.911 0.998 5.001 2.671 0.592 0.909 0.905 1.959 0.905 3.038v6.058c0 1.077-0.832 1.97-1.91 2.118v-7.965c0-0.345-0.28-0.625-0.625-0.625z"></path>
</symbol>
<symbol id="icon-tweeter" viewBox="0 0 23 32">
<title>tweeter</title>
<path d="M21.569 10.137c-0.757 0.324-1.569 0.543-2.422 0.641 0.871-0.504 1.539-1.302 1.853-2.253-0.814 0.467-1.716 0.806-2.676 0.988-0.769-0.79-1.865-1.286-3.076-1.286-2.327 0-4.216 1.824-4.216 4.071 0 0.32 0.037 0.631 0.11 0.927-3.504-0.167-6.612-1.788-8.69-4.253-0.363 0.602-0.571 1.302-0.571 2.047 0 1.414 0.745 2.659 1.876 3.39-0.69-0.022-1.341-0.206-1.91-0.51 0 0.018 0 0.035 0 0.051 0 1.973 1.453 3.618 3.382 3.992-0.353 0.094-0.726 0.143-1.11 0.143-0.273 0-0.535-0.026-0.792-0.073 0.537 1.618 2.094 2.796 3.937 2.827-1.443 1.094-3.261 1.743-5.235 1.743-0.341 0-0.676-0.020-1.006-0.057 1.867 1.157 4.082 1.829 6.463 1.829 7.755 0 11.994-6.204 11.994-11.586 0-0.176-0.004-0.355-0.012-0.527 0.82-0.573 1.535-1.288 2.1-2.106z"></path>
</symbol>
<symbol id="icon-write-board" viewBox="0 0 32 32">
<title>write-board</title>
<path d="M30.991 1.666h-13.981v-0.656c0-0.557-0.452-1.009-1.009-1.009s-1.009 0.452-1.009 1.009v0.656h-13.981c-0.557 0-1.009 0.452-1.009 1.009v3.331c0 0.557 0.452 1.009 1.009 1.009h0.656v17.312c0 0.557 0.452 1.009 1.009 1.009h11.306l-3.785 5.047c-0.334 0.446-0.244 1.079 0.202 1.413 0.182 0.136 0.394 0.202 0.605 0.202 0.307 0 0.61-0.139 0.808-0.404l3.18-4.24v3.634c0 0.557 0.452 1.009 1.009 1.009s1.009-0.452 1.009-1.009v-3.634l3.18 4.24c0.198 0.264 0.501 0.404 0.808 0.404 0.211 0 0.423-0.066 0.605-0.202 0.446-0.334 0.536-0.967 0.202-1.413l-3.785-5.047h11.306c0.557 0 1.009-0.452 1.009-1.009v-17.312h0.656c0.557 0 1.009-0.452 1.009-1.009v-3.331c0-0.557-0.452-1.009-1.009-1.009zM2.019 4.997v-1.312h27.962v1.312h-27.962zM28.315 23.319h-24.631v-16.303h24.631v16.303z"></path>
<path d="M7.672 15.344h14.991c0.557 0 1.009-0.452 1.009-1.009s-0.452-1.009-1.009-1.009h-14.991c-0.557 0-1.009 0.452-1.009 1.009s0.452 1.009 1.009 1.009z"></path>
<path d="M7.672 12.013h3.331c0.557 0 1.009-0.452 1.009-1.009s-0.452-1.009-1.009-1.009h-3.331c-0.557 0-1.009 0.452-1.009 1.009s0.452 1.009 1.009 1.009z"></path>
<path d="M7.672 18.675h9.994c0.557 0 1.009-0.452 1.009-1.009s-0.452-1.009-1.009-1.009h-9.994c-0.557 0-1.009 0.452-1.009 1.009s0.452 1.009 1.009 1.009z"></path>
</symbol>
</defs>
</svg>
