<svg aria-hidden="true" style="position:absolute;width:0;height:0" xmlns="http://www.w3.org/2000/svg" overflow="hidden"><defs><symbol id="icon-arrow-left" viewBox="0 0 24 32"><path d="M21.487 5.221L9.945 16.761 21.487 28.3l-3.513 3.514L2.921 16.761 17.974 1.708z"/></symbol><symbol id="icon-arrow-right" viewBox="0 0 24 32"><path d="M2.921 28.3l11.542-11.539L2.921 5.221l3.513-3.513 15.053 15.053L6.434 31.814z"/></symbol><symbol id="icon-bar-chart" viewBox="0 0 32 32"><path d="M30.525 30.75h-1.371V10.846c0-.926-.754-1.68-1.68-1.68H24.41c-.926 0-1.68.754-1.68 1.68V30.75h-3.481V19.864c0-.926-.754-1.68-1.68-1.68h-3.064c-.926 0-1.68.754-1.68 1.68V30.75H9.344v-5.638c0-.926-.754-1.68-1.68-1.68H4.6c-.926 0-1.68.754-1.68 1.68v5.638H1.475a.625.625 0 0 0 0 1.25h29.05a.625.625 0 0 0 0-1.25zm-22.431 0H4.17v-5.638a.43.43 0 0 1 .43-.43h3.064a.43.43 0 0 1 .43.43v5.638zm9.905 0h-3.924V19.864a.43.43 0 0 1 .43-.43h3.064a.43.43 0 0 1 .43.43V30.75zm9.905 0H23.98V10.846a.43.43 0 0 1 .43-.43h3.064a.43.43 0 0 1 .43.43V30.75zM29.153.657a.62.62 0 0 0-.655-.655L28.468 0h-3.781a.625.625 0 0 0 0 1.25h2.335l-6.179 6.179-2.33-2.33a.625.625 0 0 0-.884 0L6.393 16.335a.625.625 0 0 0 .884.884L18.071 6.425l2.33 2.33c.244.244.64.244.884 0l6.62-6.62v2.113a.625.625 0 0 0 1.25 0V.688l-.002-.03zM5.353 18.957a.625.625 0 1 1-1.25 0 .625.625 0 0 1 1.25 0z"/></symbol><symbol id="icon-consultation" viewBox="0 0 32 32"><path d="M9.73 19.438H7.671v-3.187a3.823 3.823 0 0 0-1.084-2.669 4.244 4.244 0 0 0 1.902-3.537c0-2.34-1.904-4.245-4.245-4.245S-.001 7.704-.001 10.045c0 1.275.566 2.42 1.459 3.198A3.828 3.828 0 0 0-.001 16.25v9.491h6.258v6.258h6.305v-9.73a2.835 2.835 0 0 0-2.832-2.832zM4.245 7.676c1.307 0 2.37 1.063 2.37 2.37s-1.063 2.37-2.37 2.37-2.37-1.063-2.37-2.37 1.063-2.37 2.37-2.37zm6.443 22.449H8.133v-6.258H1.875v-7.616c0-1.081.88-1.961 1.961-1.961s1.961.88 1.961 1.961v5.062h3.934c.528 0 .957.429.957.957zM30.541 13.244A4.234 4.234 0 0 0 32 10.046c0-2.341-1.904-4.245-4.245-4.245s-4.245 1.904-4.245 4.245c0 1.475.757 2.776 1.902 3.537a3.823 3.823 0 0 0-1.084 2.668v3.187h-2.059a2.835 2.835 0 0 0-2.832 2.832V32h6.305v-6.258H32v-9.491a3.828 3.828 0 0 0-1.459-3.007zm-2.786-5.568c1.307 0 2.37 1.063 2.37 2.37s-1.063 2.37-2.37 2.37-2.37-1.063-2.37-2.37 1.063-2.37 2.37-2.37zm2.37 16.191h-6.258v6.258h-2.555V22.27c0-.528.429-.957.957-.957h3.934v-5.062c0-1.081.88-1.961 1.961-1.961s1.961.88 1.961 1.961zM22 7.604V2.646A2.649 2.649 0 0 0 19.354 0h-6.709a2.649 2.649 0 0 0-2.646 2.646v4.958a2.649 2.649 0 0 0 2.646 2.646h1.136L16 14.093l2.218-3.843h1.136A2.649 2.649 0 0 0 22 7.604zm-1.875 0a.772.772 0 0 1-.771.771h-2.218L16 10.343l-1.136-1.968h-2.218a.772.772 0 0 1-.771-.771V2.646c0-.425.346-.771.771-.771h6.708c.425 0 .771.346.771.771z"/></symbol><symbol id="icon-facebook-logo" viewBox="0 0 32 32"><path d="M32 5.334C32 2.531 29.47 0 26.667 0H5.334C2.531 0 .001 2.531.001 5.334v21.333c0 2.802 2.53 5.334 5.334 5.334h10.666V19.912H12.09v-5.333h3.911v-2.078c0-3.584 2.691-6.811 6-6.811h4.311v5.333h-4.311c-.472 0-1.022.573-1.022 1.431v2.125h5.333v5.333h-5.333v12.089h5.689c2.803 0 5.333-2.531 5.333-5.334V5.334z"/></symbol><symbol id="icon-fb-icon" viewBox="0 0 23 32"><path d="M14.369 7.184h3.671v-5.42h-4.314v.02c-5.224.184-6.298 3.124-6.392 6.208h-.01v2.706H3.767v5.308h3.557v14.229h5.365V16.008h4.392l.847-5.308h-5.239V9.065c0-1.043.692-1.88 1.68-1.88z"/></symbol><symbol id="icon-globe-bg" viewBox="0 0 31 32"><path fill="var(--color2, #58595b)" d="M29.137 24.05c-2.83 2.813-7.975 4.191-13.519 4.191S4.929 26.863 2.099 24.05c1.062 1.876 1.983 2.747 3.651 4.357 2.921 1.585 6.739 2.257 9.876 2.257 3.129 0 6.954-.672 9.876-2.257 1.651-1.618 2.573-2.49 3.635-4.357zm-13.519 3.344c6.158 0 10.44-1.195 13.942-4.149a16.297 16.297 0 0 0 1.618-5.859c-2.091 3.245-10.307 5.162-15.56 5.162S2.149 20.639.058 17.386c.166 2.1.739 4.075 1.618 5.859 3.502 2.963 7.793 4.149 13.942 4.149zm0-5.726c6.539 0 14.481-2.631 15.618-5.27.05-2.191-.39-4.573-1.12-6.365.257 2.307-6.075 4.88-14.498 4.88S.863 12.34 1.12 10.033C.39 11.826-.05 14.207 0 16.398c1.137 2.631 9.079 5.27 15.618 5.27zm0-7.768c8.705 0 15.104-2.813 13.776-5.444-.647-1.278-1.477-2.423-2.481-3.502 1.436 1.784-3.668 4.008-11.303 4.008S2.871 6.738 4.307 4.954C3.319 6.033 2.49 7.178 1.842 8.456.514 11.087 6.913 13.9 15.618 13.9zm0-6.614c6.838 0 12.091-2.042 9.469-4.008C22.323 1.22 19.294 0 15.618 0S8.913 1.22 6.157 3.278c-2.631 1.967 2.631 4.008 9.461 4.008zm0 23.95c1.942 0 5.593-.465 8.158-1.568a15.31 15.31 0 0 1-8.158 2.34c-2.988 0-5.784-.855-8.158-2.34 2.573 1.104 6.216 1.568 8.158 1.568z"/></symbol><symbol id="icon-handshake" viewBox="0 0 32 32"><path d="M31.817 12.129l-5.923-5.923a.625.625 0 0 0-.884.884l5.481 5.481-3.205 3.205a.252.252 0 0 1-.356 0l-6.328-6.328a.252.252 0 0 1 0-.356l2.151-2.151a.625.625 0 0 0-.884-.884l-2.151 2.151a1.506 1.506 0 0 0-.319 1.651l-.727.727h-5.086l-.918-.918a1.492 1.492 0 0 0-.386-1.461l-2.093-2.093a.625.625 0 0 0-.884.884l2.093 2.093a.252.252 0 0 1 0 .356l-6.33 6.329-.006.006a.25.25 0 0 1-.348-.007L1.51 12.57l5.555-5.555a.625.625 0 0 0-.884-.884L.184 12.128a.625.625 0 0 0 0 .884l3.647 3.647a1.498 1.498 0 0 0 1.583.345l2.053 2.053a2.14 2.14 0 0 0 1.887 3.139h.008a2.14 2.14 0 0 0 2.129 2.137v.003a2.14 2.14 0 0 0 2.137 2.137c.363 0 .704-.091 1.003-.251l.764.764c.358.358.835.556 1.341.556s.983-.197 1.341-.556c.339-.339.534-.784.554-1.261a1.92 1.92 0 0 0 1.269-.563c.372-.372.573-.867.566-1.393v-.003a2.082 2.082 0 0 0 1.414-.675 2.09 2.09 0 0 0 .554-1.426 2.029 2.029 0 0 0 1.384-.597c.388-.388.6-.903.598-1.451a2.037 2.037 0 0 0-.218-.913l2.051-1.875a1.497 1.497 0 0 0 1.921-.168l3.647-3.647a.625.625 0 0 0 0-.884zM9.352 20.944a.888.888 0 0 1 0-1.774.888.888 0 0 1 0 1.774zm2.805 1.84l-.075.074a.887.887 0 1 1 .075-.074zm2.104 2.168l-.009.008-.009.01a.888.888 0 0 1-1.505-.635.88.88 0 0 1 .226-.589l.075-.074a.888.888 0 0 1 1.222 1.281zm8.673-4.769c-.15.15-.349.232-.56.232s-.41-.082-.56-.232l-1.299-1.299a.625.625 0 0 0-.884.884l1.299 1.299.004.004a.846.846 0 0 1-.57 1.447.84.84 0 0 1-.613-.232L18.5 21.102a.626.626 0 0 0-.86.908l1.362 1.289a.678.678 0 0 1 .013.977.682.682 0 0 1-.964 0l-.631-.631a.625.625 0 0 0-.884.884l.656.656c.122.122.189.284.189.457a.641.641 0 0 1-.646.646.641.641 0 0 1-.457-.189l-.765-.765a2.14 2.14 0 0 0-1.879-3.138v-.003a2.14 2.14 0 0 0-2.137-2.137h-.008a2.14 2.14 0 0 0-2.137-2.137c-.362 0-.704.091-1.003.251l-1.954-1.954 5.528-5.528.962.963a.625.625 0 0 0 .442.183h.809l-2.468 2.468c-.377.377-.585.879-.585 1.413s.208 1.035.585 1.413c.377.377.879.585 1.413.585s1.035-.208 1.413-.585l2.093-2.093 2.292.025 4.052 3.998a.79.79 0 0 1 .004 1.124zm.452-2.431l-3.809-3.758-.006-.005a.621.621 0 0 0-.513-.175l-2.721-.03a.627.627 0 0 0-.449.183l-2.279 2.279a.743.743 0 0 1-1.056 0 .743.743 0 0 1 0-1.056l3.352-3.352h3.026a.625.625 0 0 0 .442-.183l.833-.833 5.14 5.14-1.96 1.792z"/><path d="M28.02 12.859a.624.624 0 1 1-1.247.001.624.624 0 0 1 1.247-.001zM5.164 12.921a.624.624 0 1 1-1.247.001.624.624 0 0 1 1.247-.001zM8.815 5.134a.624.624 0 1 1-1.247.001.624.624 0 0 1 1.247-.001zM24.421 5.084a.624.624 0 1 1-1.247.001.624.624 0 0 1 1.247-.001z"/></symbol><symbol id="icon-instagram-logo" viewBox="0 0 32 32"><path d="M23.169 0H8.831C3.962 0 0 3.962 0 8.831v14.338C0 28.038 3.961 32 8.831 32h14.338C28.039 32 32 28.038 32 23.169V8.831C32 3.962 28.039 0 23.169 0zm5.992 23.169a5.999 5.999 0 0 1-5.992 5.992H8.831a5.998 5.998 0 0 1-5.991-5.992V8.831a5.999 5.999 0 0 1 5.991-5.992h14.338a5.999 5.999 0 0 1 5.992 5.992v14.338z"/><path d="M16 7.755c-4.547 0-8.246 3.699-8.246 8.246s3.699 8.245 8.246 8.245 8.246-3.699 8.246-8.245c0-4.547-3.699-8.246-8.246-8.246zm0 13.651c-2.981 0-5.406-2.425-5.406-5.406s2.425-5.406 5.406-5.406 5.406 2.425 5.406 5.406A5.412 5.412 0 0 1 16 21.406zM24.591 5.347c-.547 0-1.084.221-1.471.609a2.093 2.093 0 0 0-.611 1.473 2.1 2.1 0 0 0 .611 1.473c.386.386.924.609 1.471.609.549 0 1.085-.223 1.473-.609.388-.388.609-.926.609-1.473 0-.549-.221-1.086-.609-1.473a2.091 2.091 0 0 0-1.473-.609z"/></symbol><symbol id="icon-linkedin-logo" viewBox="0 0 32 32"><path d="M32 19.458v11.831h-6.859V20.251c0-2.773-.992-4.665-3.475-4.665-1.895 0-3.023 1.275-3.519 2.509-.181.441-.227 1.055-.227 1.672v11.522h-6.861s.092-18.695 0-20.632h6.86v2.925c-.014.022-.032.045-.045.067h.045v-.067c.911-1.404 2.539-3.409 6.183-3.409 4.514 0 7.898 2.949 7.898 9.286zM3.882.711C1.535.711 0 2.251 0 4.275c0 1.98 1.491 3.567 3.791 3.567h.046c2.393 0 3.881-1.586 3.881-3.567C7.673 2.25 6.23.711 3.883.711zM.407 31.289h6.858V10.657H.407v20.632z"/></symbol><symbol id="icon-mobesLogo" viewBox="0 0 45 32"><path fill="var(--color3, #000)" d="M26.215 23.83l.348-15.207-19.8-.452-.348 15.207zM37.607 17.711l.141-5.874-3.607-.081-.133 5.874zM33.526 17.563l.126-5.593-3.141-.067-.126 5.593z"/><path fill="var(--color3, #000)" d="M29.904 17.578l.126-5.607-3.578-.074-.126 5.6zM36.815 18.615h.089a.501.501 0 0 0 .141-.015c.03-.007.044-.03.067-.052a.147.147 0 0 0 .022-.081c0-.052-.022-.096-.067-.119-.03-.022-.089-.03-.178-.03h-.074v.296zm-.274-.563h.289c.156 0 .267.015.341.044.067.03.126.074.163.141s.059.141.059.23c0 .104-.03.185-.081.252s-.126.111-.215.141a1.228 1.228 0 0 1-.289.022v.607h-.274v-1.437zm-2.311 0h.274v.933c0 .081.007.141.022.17.015.037.037.059.067.081s.074.03.119.03c.052 0 .089-.007.126-.03s.059-.052.074-.081a.555.555 0 0 0 .022-.193v-.896h.274v.859c0 .148-.007.244-.022.304s-.044.111-.096.163a.477.477 0 0 1-.156.119.61.61 0 0 1-.207.037.488.488 0 0 1-.274-.074.413.413 0 0 1-.163-.178 1.008 1.008 0 0 1-.052-.363v-.881zm-2.023.237a.43.43 0 0 0-.333.141.48.48 0 0 0-.133.356.48.48 0 0 0 .474.489.44.44 0 0 0 .333-.141c.089-.096.141-.207.141-.348s-.044-.252-.141-.348a.437.437 0 0 0-.341-.148zm0-.267c.2 0 .378.074.526.222s.222.326.222.541c0 .207-.074.385-.215.533s-.319.215-.526.215a.75.75 0 0 1-.756-.755c0-.141.037-.267.096-.378a.7.7 0 0 1 .274-.274.694.694 0 0 1 .378-.104zm-2.57.593h.089c.089 0 .148-.015.178-.037s.052-.059.052-.111c0-.03-.007-.059-.022-.081s-.037-.037-.067-.052a.619.619 0 0 0-.148-.015h-.074v.296zm-.274-.563h.289c.156 0 .274.015.341.044s.119.074.163.141c.044.067.059.141.059.237s-.022.17-.067.237a.36.36 0 0 1-.207.141l.341.637h-.296l-.326-.607h-.022v.607h-.274v-1.437zm-1.393.237l-.193.193a.582.582 0 0 0-.43-.193c-.141 0-.259.044-.356.141s-.141.207-.141.341a.494.494 0 0 0 .511.497.449.449 0 0 0 .237-.059.39.39 0 0 0 .156-.185h-.415v-.259h.726v.059c0 .126-.03.244-.096.356s-.148.2-.252.259a.715.715 0 0 1-.363.089c-.148 0-.281-.03-.4-.096s-.207-.156-.274-.274a.789.789 0 0 1-.104-.385.71.71 0 0 1 .185-.496.733.733 0 0 1 .585-.252c.126 0 .244.022.348.067a.747.747 0 0 1 .274.2zM25.526 17.911l.133-6.141-6.141-.141-.141 6.141z"/><path fill="var(--color4, #fff)" d="M20.933 17.237a3.126 3.126 0 0 1-1.178-3.489c.022-.067.067-.222.111-.267.17-.178.037.274.015.363a3.12 3.12 0 0 0 1.222 3.333c.356.259.081.237-.17.059z"/><path fill="var(--color4, #fff)" d="M22.533 11.948c1.333 0 2.415.807 2.415 1.807s-1.081 1.807-2.415 1.807c-1.333 0-2.415-.807-2.415-1.807s1.081-1.807 2.415-1.807z"/><path fill="var(--color3, #000)" d="M19.289 17.652l.133-5.815-6.785-.156-.133 5.815z"/><path fill="var(--color4, #fff)" d="M22.504 13.378c.644 0 1.17.415 1.17.933s-.526.933-1.17.933c-.644 0-1.17-.415-1.17-.933s.526-.933 1.17-.933z"/></symbol><symbol id="icon-placeholder" viewBox="0 0 32 32"><path d="M16 0C9.797 0 4.75 5.047 4.75 11.25c0 2.096.581 4.141 1.679 5.916l8.93 14.391a.936.936 0 0 0 .797.443h.007a.938.938 0 0 0 .797-.456l8.703-14.53a11.238 11.238 0 0 0 1.587-5.764C27.25 5.047 22.203 0 16 0zm8.054 16.051l-7.912 13.21-8.119-13.084a9.36 9.36 0 0 1-1.41-4.928c0-5.169 4.218-9.387 9.387-9.387s9.381 4.218 9.381 9.387a9.367 9.367 0 0 1-1.327 4.801z"/><path d="M16 5.625a5.63 5.63 0 0 0-5.625 5.625A5.617 5.617 0 0 0 16 16.875c3.181 0 5.625-2.577 5.625-5.625A5.63 5.63 0 0 0 16 5.625zm0 9.387a3.765 3.765 0 0 1-3.762-3.762c0-2.068 1.695-3.763 3.762-3.763s3.756 1.695 3.756 3.763c0 2.043-1.645 3.762-3.756 3.762z"/></symbol><symbol id="icon-price-tag" viewBox="0 0 32 32"><path d="M31.578.156a.532.532 0 0 0-.754 0l-1.977 1.977H16.429L.818 17.873c-.355.355-.551.828-.551 1.331s.196.976.551 1.331l10.916 10.916a1.888 1.888 0 0 0 2.667-.005l15.201-15.612V2.889L31.579.912a.532.532 0 0 0 0-.754zM28.534 15.4L13.64 30.696a.816.816 0 0 1-1.153 0L1.571 19.78a.817.817 0 0 1 .002-1.155l15.3-15.426H27.78l-2.578 2.578a2.654 2.654 0 0 0-1.468-.444c-1.47 0-2.667 1.196-2.667 2.667s1.196 2.667 2.667 2.667S26.401 9.471 26.401 8c0-.542-.165-1.046-.444-1.468l2.578-2.578V15.4zm-3.2-7.4c0 .882-.718 1.6-1.6 1.6s-1.6-.718-1.6-1.6.718-1.6 1.6-1.6c.246 0 .477.061.685.161l-1.062 1.062a.532.532 0 0 0 .377.91.532.532 0 0 0 .377-.156l1.062-1.062c.1.209.161.439.161.685z"/></symbol><symbol id="icon-search" viewBox="0 0 32 32"><path d="M22.022 19.38H20.63l-.493-.476a11.406 11.406 0 0 0 2.766-7.452C22.904 5.126 17.776-.001 11.452-.001S.001 5.126.001 11.452s5.127 11.451 11.451 11.451c2.836 0 5.444-1.039 7.453-2.766l.475.493v1.392l8.809 8.791 2.625-2.625-8.791-8.809zm-10.571 0a7.917 7.917 0 0 1-7.928-7.928c0-4.388 3.541-7.929 7.928-7.929s7.928 3.542 7.928 7.929a7.917 7.917 0 0 1-7.928 7.928z"/></symbol><symbol id="icon-sertification" viewBox="0 0 25 32"><path d="M24.883 11.324l-2.434-2.513.489-3.466a.98.98 0 0 0-.807-1.111l-3.453-.609L17.038.53a.984.984 0 0 0-1.31-.423L12.58 1.642 9.432.107a.996.996 0 0 0-1.31.423l-1.64 3.095-3.453.609a.98.98 0 0 0-.807 1.111l.489 3.466-2.434 2.513a.992.992 0 0 0 0 1.376l2.434 2.513-.489 3.466a.98.98 0 0 0 .807 1.111l2.765.489v10.728c0 .344.172.661.476.847.159.093.344.145.516.145.146 0 .304-.04.45-.106l5.344-2.672 5.344 2.672c.304.159.675.132.966-.04.291-.185.476-.503.476-.847V20.278l2.765-.489a.98.98 0 0 0 .807-1.111l-.489-3.466 2.434-2.513a.992.992 0 0 0 0-1.376zm-11.866 15.9a.957.957 0 0 0-.886 0l-4.352 2.183v-6.561l.344.648a.984.984 0 0 0 1.31.423l3.148-1.535 3.148 1.535c.146.066.291.106.437.106a.988.988 0 0 0 .873-.529l.344-.648v6.561l-4.365-2.183zm7.659-13.043a.976.976 0 0 0-.265.833l.423 3.003-2.976.516a.968.968 0 0 0-.701.516l-1.415 2.672-2.712-1.323c-.132-.066-.291-.106-.437-.106s-.304.04-.437.106l-2.712 1.323-1.442-2.672a1.032 1.032 0 0 0-.701-.516l-2.976-.516.423-3.003a1.013 1.013 0 0 0-.265-.833l-2.117-2.17 2.103-2.169a.976.976 0 0 0 .265-.833l-.423-2.99 2.976-.516a.968.968 0 0 0 .701-.516l1.415-2.672 2.712 1.323c.278.132.595.132.873 0L15.7 2.315l1.415 2.672c.145.265.41.463.701.516l2.976.516-.423 2.99c-.04.304.053.609.265.833l2.103 2.169-2.064 2.169z"/><path d="M12.58 5.225c-3.744 0-6.786 3.043-6.786 6.786s3.043 6.786 6.786 6.786c3.744 0 6.786-3.043 6.786-6.786s-3.043-6.786-6.786-6.786zm0 11.589c-2.646 0-4.802-2.156-4.802-4.802S9.934 7.21 12.58 7.21c2.646 0 4.802 2.156 4.802 4.802s-2.156 4.802-4.802 4.802z"/><path d="M14.604 9.498l-2.937 2.924-1.111-1.111c-.384-.384-1.019-.384-1.402 0s-.384 1.019 0 1.402l1.812 1.812c.198.198.45.291.701.291s.503-.093.701-.291l3.638-3.625a.997.997 0 0 0 0-1.402.974.974 0 0 0-1.402 0z"/></symbol><symbol id="icon-settings" viewBox="0 0 32 32"><path d="M30.362 12.641l-2.246-.381a12.74 12.74 0 0 0-.902-2.179l1.324-1.852a1.97 1.97 0 0 0-.214-2.547L26.332 3.69a1.963 1.963 0 0 0-2.54-.214L21.934 4.8a12.555 12.555 0 0 0-2.259-.929l-.374-2.219A1.974 1.974 0 0 0 17.349.001h-2.814c-.969 0-1.791.695-1.952 1.651l-.388 2.273c-.749.234-1.477.541-2.173.916L8.184 3.517a1.96 1.96 0 0 0-1.15-.368c-.528 0-1.029.207-1.397.582L3.638 5.723a1.98 1.98 0 0 0-.214 2.547l1.337 1.878a12.356 12.356 0 0 0-.889 2.186l-2.219.374A1.974 1.974 0 0 0 .002 14.66v2.814c0 .969.695 1.791 1.651 1.952l2.273.388c.234.749.541 1.477.916 2.173l-1.317 1.832a1.97 1.97 0 0 0 .214 2.547l1.992 1.992a1.963 1.963 0 0 0 2.54.214l1.878-1.337a12.66 12.66 0 0 0 2.112.869l.374 2.246c.16.956.983 1.651 1.952 1.651h2.821c.969 0 1.791-.695 1.952-1.651l.381-2.246a12.74 12.74 0 0 0 2.179-.902l1.852 1.324a1.96 1.96 0 0 0 1.15.368 1.96 1.96 0 0 0 1.397-.582l1.992-1.992a1.98 1.98 0 0 0 .214-2.547l-1.324-1.858c.368-.702.675-1.431.902-2.179l2.246-.374A1.974 1.974 0 0 0 32 17.41v-2.814a1.952 1.952 0 0 0-1.638-1.952zm-.154 4.766c0 .087-.06.16-.147.174l-2.808.468a.898.898 0 0 0-.722.662 10.714 10.714 0 0 1-1.163 2.801.906.906 0 0 0 .04.983l1.651 2.326a.182.182 0 0 1-.02.227l-1.992 1.992a.169.169 0 0 1-.127.053.162.162 0 0 1-.1-.033l-2.32-1.651a.903.903 0 0 0-.983-.04c-.876.521-1.818.909-2.801 1.163a.887.887 0 0 0-.662.722l-.475 2.808a.173.173 0 0 1-.174.147h-2.814a.174.174 0 0 1-.174-.147l-.468-2.808a.898.898 0 0 0-.662-.722 11.097 11.097 0 0 1-2.741-1.123.927.927 0 0 0-.455-.12.874.874 0 0 0-.521.167l-2.34 1.665a.198.198 0 0 1-.1.033.182.182 0 0 1-.127-.053l-1.992-1.992a.18.18 0 0 1-.02-.227l1.644-2.306a.914.914 0 0 0 .04-.989 10.586 10.586 0 0 1-1.176-2.794.915.915 0 0 0-.722-.662l-2.828-.481a.173.173 0 0 1-.147-.174v-2.814c0-.087.06-.16.147-.174l2.788-.468a.905.905 0 0 0 .729-.668c.247-.983.628-1.932 1.143-2.808a.892.892 0 0 0-.047-.976l-1.665-2.34a.182.182 0 0 1 .02-.227l1.992-1.992a.169.169 0 0 1 .127-.053c.04 0 .074.013.1.033l2.306 1.644a.914.914 0 0 0 .989.04 10.586 10.586 0 0 1 2.794-1.176.915.915 0 0 0 .662-.722l.481-2.828a.173.173 0 0 1 .174-.147h2.814c.087 0 .16.06.174.147l.468 2.788c.06.354.321.642.668.729 1.009.254 1.972.648 2.868 1.176a.904.904 0 0 0 .983-.04l2.306-1.658a.198.198 0 0 1 .1-.033c.027 0 .08.007.127.053l1.992 1.992a.18.18 0 0 1 .02.227l-1.651 2.32a.903.903 0 0 0-.04.983c.521.876.909 1.818 1.163 2.801a.887.887 0 0 0 .722.662l2.808.475a.173.173 0 0 1 .147.174v2.814h-.007z"/><path d="M16.003 9.091c-3.81 0-6.905 3.095-6.905 6.905s3.095 6.905 6.905 6.905 6.905-3.095 6.905-6.905-3.095-6.905-6.905-6.905zm0 12.006c-2.814 0-5.1-2.286-5.1-5.1s2.286-5.1 5.1-5.1 5.1 2.286 5.1 5.1-2.286 5.1-5.1 5.1z"/></symbol><symbol id="icon-team" viewBox="0 0 32 32"><path d="M28.227 21.131a.625.625 0 1 1-1.25 0 .625.625 0 0 1 1.25 0zM4.435 21.131a.625.625 0 1 1-1.25 0 .625.625 0 0 1 1.25 0z"/><path d="M30.894 30.75h-5.367l-.033-15.361a.625.625 0 0 0-.625-.624h-.001a.625.625 0 0 0-.624.626l.033 15.358h-1.816l-.016-6.834a.625.625 0 0 0-.625-.624h-.002a.625.625 0 0 0-.624.627l.016 6.831h-1.518v-8.273c1.769-.156 3.161-1.61 3.161-3.376v-6.058c0-.963-.204-1.907-.595-2.779a5.173 5.173 0 0 1 3.267 1.438 4.843 4.843 0 0 1 1.504 3.498l.011 3.557a.625.625 0 0 0 .625.623h.002a.625.625 0 0 0 .623-.627l-.011-3.557a6.086 6.086 0 0 0-1.886-4.394 6.4 6.4 0 0 0-2.412-1.465 3.3 3.3 0 0 0 1.03-2.402 3.311 3.311 0 0 0-3.307-3.3h-.007a3.31 3.31 0 0 0-1.525.376.625.625 0 0 0 .58 1.108 2.06 2.06 0 0 1 3.01 1.82A2.06 2.06 0 0 1 21.709 9a.516.516 0 0 0-.079.006l-.1.004a7.114 7.114 0 0 0-3.615-2.588 3.657 3.657 0 0 0 1.252-2.756c0-2.022-1.645-3.667-3.667-3.667s-3.667 1.645-3.667 3.667c0 1.151.533 2.179 1.365 2.852a7.109 7.109 0 0 0-3.331 2.488 7.352 7.352 0 0 0-.296-.007l-.14.002A2.06 2.06 0 0 1 7.34 6.942a2.06 2.06 0 0 1 3.038-1.809.625.625 0 1 0 .597-1.099 3.312 3.312 0 0 0-4.886 2.907c0 .993.441 1.885 1.136 2.492-2.363.911-4.039 3.157-4.039 5.776v3.545a.625.625 0 0 0 1.25 0v-3.545c0-2.592 2.07-4.725 4.697-4.941a6.787 6.787 0 0 0-.593 2.774V19.1c0 1.8 1.447 3.277 3.266 3.384v8.265h-1.703v-6.833a.625.625 0 0 0-1.25 0v6.833H7.316V15.396a.625.625 0 0 0-1.25 0v15.353H1.107a.625.625 0 0 0 0 1.25h29.787a.625.625 0 0 0 0-1.25zM13.082 3.667c0-1.333 1.084-2.417 2.417-2.417s2.417 1.084 2.417 2.417-1.084 2.417-2.417 2.417a2.42 2.42 0 0 1-2.417-2.417zm5.985 8.962a.625.625 0 0 0-.625.625v17.495h-2.226v-8.697a.625.625 0 0 0-1.25 0v8.697h-1.91V13.253a.625.625 0 0 0-1.25 0v7.978c-1.129-.102-2.016-1.019-2.016-2.131v-6.058c0-1.082.315-2.135.91-3.045 1.091-1.668 2.959-2.664 4.997-2.664 2.041 0 3.911.998 5.001 2.671.592.909.905 1.959.905 3.038V19.1c0 1.077-.832 1.97-1.91 2.118v-7.965a.625.625 0 0 0-.625-.625z"/></symbol><symbol id="icon-tweeter" viewBox="0 0 23 32"><path d="M21.569 10.137a8.654 8.654 0 0 1-2.422.641A4.106 4.106 0 0 0 21 8.525a8.59 8.59 0 0 1-2.676.988 4.286 4.286 0 0 0-3.076-1.286c-2.327 0-4.216 1.824-4.216 4.071 0 .32.037.631.11.927-3.504-.167-6.612-1.788-8.69-4.253a3.951 3.951 0 0 0-.571 2.047c0 1.414.745 2.659 1.876 3.39a4.346 4.346 0 0 1-1.91-.51v.051c0 1.973 1.453 3.618 3.382 3.992a4.313 4.313 0 0 1-1.902.07c.537 1.618 2.094 2.796 3.937 2.827a8.639 8.639 0 0 1-5.235 1.743c-.341 0-.676-.02-1.006-.057a12.23 12.23 0 0 0 6.463 1.829c7.755 0 11.994-6.204 11.994-11.586 0-.176-.004-.355-.012-.527a8.405 8.405 0 0 0 2.1-2.106z"/></symbol><symbol id="icon-write-board" viewBox="0 0 32 32"><path d="M30.991 1.666H17.01V1.01a1.01 1.01 0 0 0-2.018 0v.656H1.011A1.01 1.01 0 0 0 .002 2.675v3.331a1.01 1.01 0 0 0 1.009 1.009h.656v17.312a1.01 1.01 0 0 0 1.009 1.009h11.306l-3.785 5.047a1.01 1.01 0 0 0 1.615 1.211l3.18-4.24v3.634a1.01 1.01 0 0 0 2.018 0v-3.634l3.18 4.24a1.008 1.008 0 1 0 1.615-1.211l-3.785-5.047h11.306a1.01 1.01 0 0 0 1.009-1.009V7.015h.656A1.01 1.01 0 0 0 32 6.006V2.675a1.01 1.01 0 0 0-1.009-1.009zM2.019 4.997V3.685h27.962v1.312H2.019zm26.296 18.322H3.684V7.016h24.631v16.303z"/><path d="M7.672 15.344h14.991a1.01 1.01 0 0 0 0-2.018H7.672a1.01 1.01 0 0 0 0 2.018zM7.672 12.013h3.331a1.01 1.01 0 0 0 0-2.018H7.672a1.01 1.01 0 0 0 0 2.018zM7.672 18.675h9.994a1.01 1.01 0 0 0 0-2.018H7.672a1.01 1.01 0 0 0 0 2.018z"/></symbol></defs></svg>